<?xml version="1.0" encoding="utf-8" standalone="yes"?>
<!DOCTYPE svg PUBLIC "-//W3C//DTD SVG 1.1//EN" "http://www.w3.org/Graphics/SVG/1.1/DTD/svg11.dtd">
<svg style="fill:none;stroke:none;fill-rule:evenodd;clip-rule:evenodd;stroke-linecap:round;stroke-linejoin:round;stroke-miterlimit:1.5;" version="1.1" xmlns="http://www.w3.org/2000/svg" xmlns:xlink="http://www.w3.org/1999/xlink" width="792" height="792" viewBox="0 0 792 792"><style class="text-font-style fontImports" data-font-family="Merriweather">@import url(https://fonts.googleapis.com/css2?family=Merriweather:wght@400;700&amp;amp;display=block);</style><style class="text-font-style fontImports" data-font-family="Roboto">@import url(https://fonts.googleapis.com/css2?family=Roboto:wght@400;700&amp;amp;display=block);</style><rect id="" x="0" y="0" width="792" height="792" style="fill: #2c2c2c;"></rect><g id="items" style="isolation: isolate"><g id="blend" style="mix-blend-mode: normal"><g id="g-root-cp_1_g-1_hteudi169epds-fill" data-item-order="-385382" transform="translate(339.260009765625, 166.4599609375)"><g id="cp_1_g-1_hteudi169epds-fill-merged" stroke="none" fill="#ffe712" fill-opacity="1"><g><path d="M78.19 29.57L75.01 39.36L98.34 34.4L105.21 32.94L96.66 23.45L84.55 10L81.32 19.96C56.74 15.73 32.33 18.01 10 25.62L14.57 34.58C34.55 28.02 56.28 26.04 78.19 29.58"></path></g></g></g><g id="g-root-cp_1_g-1_hteudi169epds-stroke" data-item-order="-385382" transform="translate(339.260009765625, 166.4599609375)"></g><g id="g-root-cp_2_g-2_4ikt3a169ensx-fill" data-item-order="-385378" transform="translate(447.3699951171875, 189.3699951171875)"><g id="cp_2_g-2_4ikt3a169ensx-fill-merged" stroke="none" fill="#f99539" fill-opacity="1"><g><path d="M69.34 78.71L75.26 82.55L75.92 69.94L76.87 51.72L67.48 56.51C53.72 37.06 35.21 20.89 13.12 10L10 19.6C29.57 29.51 46.08 43.87 58.52 61.07L49.35 65.74L69.33 78.71"></path></g></g></g><g id="g-root-cp_2_g-2_4ikt3a169ensx-stroke" data-item-order="-385378" transform="translate(447.3699951171875, 189.3699951171875)"></g><g id="g-root-cp_3_g-3_1q88cp2169ep6q-fill" data-item-order="-385374" transform="translate(510.17999267578125, 273.25)"><g id="cp_3_g-3_1q88cp2169ep6q-fill-merged" stroke="none" fill="#fb6963" fill-opacity="1"><g><path d="M29.4 81.32C33.63 56.74 31.36 32.33 23.74 10L14.78 14.57C21.34 34.55 23.32 56.28 19.78 78.19L10 75.01L14.95 98.33L16.41 105.21L25.89 96.67L39.36 84.55L29.39 81.31"></path></g></g></g><g id="g-root-cp_3_g-3_1q88cp2169ep6q-stroke" data-item-order="-385374" transform="translate(510.17999267578125, 273.25)"></g><g id="g-root-cp_4_g-4_1cxebeu169enlv-fill" data-item-order="-385370" transform="translate(444.08001708984375, 381.3699951171875)"><g id="cp_4_g-4_1cxebeu169enlv-fill-merged" stroke="none" fill="#f468bd" fill-opacity="1"><g><path d="M72.95 10.01C63.04 29.58 48.69 46.08 31.48 58.52L26.81 49.36L13.84 69.34L10 75.25L22.64 75.91L40.83 76.86L36.05 67.48C55.5 53.72 71.66 35.2 82.55 13.12L72.95 10"></path></g></g></g><g id="g-root-cp_4_g-4_1cxebeu169enlv-stroke" data-item-order="-385370" transform="translate(444.08001708984375, 381.3699951171875)"></g><g id="g-root-cp_5_g-5_qqassm169epzg-fill" data-item-order="-385366" transform="translate(337.52001953125, 444.17999267578125)"><g id="cp_5_g-5_qqassm169epzg-fill-merged" stroke="none" fill="#cd69fa" fill-opacity="1"><g><path d="M37.02 19.79L40.2 10L16.88 14.96L10 16.42L18.55 25.91L30.66 39.36L33.89 29.4C58.47 33.63 82.88 31.35 105.22 23.74L100.65 14.78C80.67 21.34 58.94 23.32 37.02 19.78"></path></g></g></g><g id="g-root-cp_5_g-5_qqassm169epzg-stroke" data-item-order="-385366" transform="translate(337.52001953125, 444.17999267578125)"></g><g id="g-root-cp_6_g-6_mb3rra169enlx-fill" data-item-order="-385362" transform="translate(257.760009765625, 378.0799560546875)"><g id="cp_6_g-6_mb3rra169enlx-fill-merged" stroke="none" fill="#8769fd" fill-opacity="1"><g><path d="M37.51 26.81L17.53 13.84L11.61 10L10.95 22.63L10 40.83L19.39 36.04C33.15 55.49 51.66 71.66 73.74 82.55L76.86 72.95C57.29 63.04 40.79 48.68 28.35 31.48L37.52 26.81"></path></g></g></g><g id="g-root-cp_6_g-6_mb3rra169enlx-stroke" data-item-order="-385362" transform="translate(257.760009765625, 378.0799560546875)"></g><g id="g-root-cp_7_g-7_40952169epzi-fill" data-item-order="-385358" transform="translate(232.45001220703125, 271.530029296875)"><g id="cp_7_g-7_40952169epzi-fill-merged" stroke="none" fill="#1ac4fd" fill-opacity="1"><g><path d="M39.37 40.2L34.41 16.89L32.94 10L23.47 18.53L10 30.66L19.97 33.9C15.74 58.47 18.01 82.88 25.62 105.21L34.58 100.65C28.03 80.67 26.05 58.95 29.59 37.03L39.37 40.21"></path></g></g></g><g id="g-root-cp_7_g-7_40952169epzi-stroke" data-item-order="-385358" transform="translate(232.45001220703125, 271.530029296875)"></g><g id="g-root-cp_8_g-8_1lua9ty169eo7j-fill" data-item-order="-385354" transform="translate(255.3699951171875, 191.75)"><g id="cp_8_g-8_1lua9ty169eo7j-fill-merged" stroke="none" fill="#43df94" fill-opacity="1"><g><path d="M19.6 76.87C29.51 57.3 43.87 40.8 61.07 28.36L65.73 37.51L78.71 17.53L82.55 11.62L69.93 10.96L51.71 10L56.5 19.4C37.05 33.16 20.89 51.68 10 73.75L19.6 76.87"></path></g></g></g><g id="g-root-cp_8_g-8_1lua9ty169eo7j-stroke" data-item-order="-385354" transform="translate(255.3699951171875, 191.75)"></g><g id="g-root-tx_konuilei_ddlc92169g3k6-fill" data-item-order="0" transform="translate(506, 188)"><g id="tx_konuilei_ddlc92169g3k6-fill-merged" stroke="none" fill="#f4f4f4" fill-opacity="1"><g><text style="font: 10.5px Roboto, sans-serif; white-space: pre;" transform="translate(10, 22)" font-size="10.5px" font-family="Roboto, sans-serif"><tspan x="2" y="0" dominant-baseline="ideographic">Konu ile ilgili mevcut </tspan><tspan x="2" y="12" dominant-baseline="ideographic">çalışmalar incelenir.</tspan></text></g></g></g><g id="g-root-tx_konuilei_ddlc92169g3k6-stroke" data-item-order="0" transform="translate(506, 188)"></g><g id="g-root-tx_literatr_1hapx6u169g551-fill" data-item-order="0" transform="translate(506, 174)"><g id="tx_literatr_1hapx6u169g551-fill-merged" stroke="none" fill="#f99539" fill-opacity="1"><g><text style="font: 12px Merriweather, serif; white-space: pre;" transform="translate(10, 17)" font-size="12px" font-family="Merriweather, serif"><tspan x="2" y="7.5" dominant-baseline="ideographic">Literatür Tarama</tspan></text></g></g></g><g id="g-root-tx_literatr_1hapx6u169g551-stroke" data-item-order="0" transform="translate(506, 174)"></g><g id="g-root-tx_aratrmas_1q9hava169g4qw-fill" data-item-order="0" transform="translate(171.1640625, 176)"><g id="tx_aratrmas_1q9hava169g4qw-fill-merged" stroke="none" fill="#f4f4f4" fill-opacity="1"><g><text style="font: 10.5px Roboto, sans-serif; white-space: pre;" transform="translate(104.8359375, 28)" font-size="10.5px" font-family="Roboto, sans-serif"><tspan x="-91.93" y="-6" dominant-baseline="ideographic">Araştırma süreci ve </tspan><tspan x="-92.84" y="6" dominant-baseline="ideographic">sonuçları akademik </tspan><tspan x="-74.56" y="18" dominant-baseline="ideographic">formatta yazılır.</tspan></text></g></g></g><g id="g-root-tx_aratrmas_1q9hava169g4qw-stroke" data-item-order="0" transform="translate(171.1640625, 176)"></g><g id="g-root-tx_bulgular_13zvvwm169hgy7-fill" data-item-order="0" transform="translate(123.421875, 285)"><g id="tx_bulgular_13zvvwm169hgy7-fill-merged" stroke="none" fill="#1ac4fd" fill-opacity="1"><g><text style="font: 12px Merriweather, serif; white-space: pre;" transform="translate(98.578125, 24)" font-size="12px" font-family="Merriweather, serif"><tspan x="-63.34" y="0.5" dominant-baseline="ideographic">Bulguların </tspan><tspan x="-86.58" y="14.5" dominant-baseline="ideographic">Yorumlanması</tspan></text></g></g></g><g id="g-root-tx_bulgular_13zvvwm169hgy7-stroke" data-item-order="0" transform="translate(123.421875, 285)"></g><g id="g-root-tx_anketgzl_zitfly169g26c-fill" data-item-order="0" transform="translate(333.3984375, 508)"><g id="tx_anketgzl_zitfly169g26c-fill-merged" stroke="none" fill="#f4f4f4" fill-opacity="1"><g><text style="font: 10.5px Roboto, sans-serif; white-space: pre;" transform="translate(62.6015625, 34)" font-size="10.5px" font-family="Roboto, sans-serif"><tspan x="-35.28" y="-12" dominant-baseline="ideographic">Anket, gözlem, </tspan><tspan x="-33.88" y="0" dominant-baseline="ideographic">görüşme veya </tspan><tspan x="-50.6" y="12" dominant-baseline="ideographic">deneysel yöntemlerle </tspan><tspan x="-35.59" y="24" dominant-baseline="ideographic">veriler toplanır.</tspan></text></g></g></g><g id="g-root-tx_anketgzl_zitfly169g26c-stroke" data-item-order="0" transform="translate(333.3984375, 508)"></g><g id="g-root-tx_analizso_8xru4m169hhqg-fill" data-item-order="0" transform="translate(133.8046875, 313)"><g id="tx_analizso_8xru4m169hhqg-fill-merged" stroke="none" fill="#f4f4f4" fill-opacity="1"><g><text style="font: 10.5px Roboto, sans-serif; white-space: pre;" transform="translate(88.1953125, 28)" font-size="10.5px" font-family="Roboto, sans-serif"><tspan x="-76.2" y="-6" dominant-baseline="ideographic">Analiz sonuçları </tspan><tspan x="-44.55" y="6" dominant-baseline="ideographic">hipotezle </tspan><tspan x="-61.34" y="18" dominant-baseline="ideographic">karşılaştırılır.</tspan></text></g></g></g><g id="g-root-tx_analizso_8xru4m169hhqg-stroke" data-item-order="0" transform="translate(133.8046875, 313)"></g><g id="g-root-tx_probleme_8vweva169hiq6-fill" data-item-order="0" transform="translate(560, 313)"><g id="tx_probleme_8vweva169hiq6-fill-merged" stroke="none" fill="#f4f4f4" fill-opacity="1"><g><text style="font: 10.5px Roboto, sans-serif; white-space: pre;" transform="translate(10, 28)" font-size="10.5px" font-family="Roboto, sans-serif"><tspan x="2" y="-6" dominant-baseline="ideographic">Probleme yönelik test </tspan><tspan x="2" y="6" dominant-baseline="ideographic">edilebilir bir önerme </tspan><tspan x="2" y="18" dominant-baseline="ideographic">geliştirilir.</tspan></text></g></g></g><g id="g-root-tx_probleme_8vweva169hiq6-stroke" data-item-order="0" transform="translate(560, 313)"></g><g id="g-root-tx_raporlam_v64ax2169g3d3-fill" data-item-order="0" transform="translate(199.0703125, 162)"><g id="tx_raporlam_v64ax2169g3d3-fill-merged" stroke="none" fill="#43df94" fill-opacity="1"><g><text style="font: 12px Merriweather, serif; white-space: pre;" transform="translate(76.9296875, 17)" font-size="12px" font-family="Merriweather, serif"><tspan x="-64.93" y="7.5" dominant-baseline="ideographic">Raporlama</tspan></text></g></g></g><g id="g-root-tx_raporlam_v64ax2169g3d3-stroke" data-item-order="0" transform="translate(199.0703125, 162)"></g><g id="g-root-tx_aratrlac_1lxen9i169epdu-fill" data-item-order="0" transform="translate(333, 116)"><g id="tx_aratrlac_1lxen9i169epdu-fill-merged" stroke="none" fill="#f4f4f4" fill-opacity="1"><g><text style="font: 10.5px Roboto, sans-serif; white-space: pre;" transform="translate(63, 22)" font-size="10.5px" font-family="Roboto, sans-serif"><tspan x="-41.91" y="0" dominant-baseline="ideographic">Araştırılacak konu </tspan><tspan x="-51" y="12" dominant-baseline="ideographic">veya sorun tanımlanır.</tspan></text></g></g></g><g id="g-root-tx_aratrlac_1lxen9i169epdu-stroke" data-item-order="0" transform="translate(333, 116)"></g><g id="g-root-tx_verianal_1usf6fa169g54z-fill" data-item-order="0" transform="translate(183.3046875, 422)"><g id="tx_verianal_1usf6fa169g54z-fill-merged" stroke="none" fill="#8769fd" fill-opacity="1"><g><text style="font: 12px Merriweather, serif; white-space: pre;" transform="translate(80.6953125, 17)" font-size="12px" font-family="Merriweather, serif"><tspan x="-68.7" y="7.5" dominant-baseline="ideographic">Veri Analizi</tspan></text></g></g></g><g id="g-root-tx_verianal_1usf6fa169g54z-stroke" data-item-order="0" transform="translate(183.3046875, 422)"></g><g id="g-root-tx_problemb_1hgc6yu169eo01-fill" data-item-order="0" transform="translate(356.28125, 88)"><g id="tx_problemb_1hgc6yu169eo01-fill-merged" stroke="none" fill="#ffe712" fill-opacity="1"><g><text style="font: 12px Merriweather, serif; white-space: pre;" transform="translate(39.71875, 24)" font-size="12px" font-family="Merriweather, serif"><tspan x="-24.36" y="0.5" dominant-baseline="ideographic">Problem </tspan><tspan x="-27.72" y="14.5" dominant-baseline="ideographic">Belirleme</tspan></text></g></g></g><g id="g-root-tx_problemb_1hgc6yu169eo01-stroke" data-item-order="0" transform="translate(356.28125, 88)"></g><g id="g-root-tx_bilimsel_qs681y169eozs-fill" data-item-order="0" transform="translate(262.875, 38)"><g id="tx_bilimsel_qs681y169eozs-fill-merged" stroke="none" fill="#f4f4f4" fill-opacity="1"><g><text style="font: bold 20px Merriweather, serif; white-space: pre;" transform="translate(133.125, 22)" font-weight="bold" font-size="20px" font-family="Merriweather, serif"><tspan x="-121.13" y="11.5" dominant-baseline="ideographic">Bilimsel Araştırma Döngüsü</tspan></text></g></g></g><g id="g-root-tx_bilimsel_qs681y169eozs-stroke" data-item-order="0" transform="translate(262.875, 38)"></g><g id="g-root-tx_aratrmad_hwj7t2169g3y9-fill" data-item-order="0" transform="translate(518, 422)"><g id="tx_aratrmad_hwj7t2169g3y9-fill-merged" stroke="none" fill="#f468bd" fill-opacity="1"><g><text style="font: 12px Merriweather, serif; white-space: pre;" transform="translate(10, 24)" font-size="12px" font-family="Merriweather, serif"><tspan x="2" y="0.5" dominant-baseline="ideographic">Araştırma Deseni </tspan><tspan x="2" y="14.5" dominant-baseline="ideographic">Belirleme</tspan></text></g></g></g><g id="g-root-tx_aratrmad_hwj7t2169g3y9-stroke" data-item-order="0" transform="translate(518, 422)"></g><g id="g-root-tx_toplanan_qvalhi169g3k4-fill" data-item-order="0" transform="translate(153.375, 436)"><g id="tx_toplanan_qvalhi169g3k4-fill-merged" stroke="none" fill="#f4f4f4" fill-opacity="1"><g><text style="font: 10.5px Roboto, sans-serif; white-space: pre;" transform="translate(110.625, 34)" font-size="10.5px" font-family="Roboto, sans-serif"><tspan x="-76.2" y="-12" dominant-baseline="ideographic">Toplanan veriler </tspan><tspan x="-79.11" y="0" dominant-baseline="ideographic">istatistiksel veya </tspan><tspan x="-98.63" y="12" dominant-baseline="ideographic">tematik olarak analiz </tspan><tspan x="-26.85" y="24" dominant-baseline="ideographic">edilir.</tspan></text></g></g></g><g id="g-root-tx_toplanan_qvalhi169g3k4-stroke" data-item-order="0" transform="translate(153.375, 436)"></g><g id="g-root-tx_nicelnit_1d0ioue169g26a-fill" data-item-order="0" transform="translate(518, 450)"><g id="tx_nicelnit_1d0ioue169g26a-fill-merged" stroke="none" fill="#f4f4f4" fill-opacity="1"><g><text style="font: 10.5px Roboto, sans-serif; white-space: pre;" transform="translate(10, 28)" font-size="10.5px" font-family="Roboto, sans-serif"><tspan x="2" y="-6" dominant-baseline="ideographic">Nicel, nitel veya </tspan><tspan x="2" y="6" dominant-baseline="ideographic">karma yöntemlerden </tspan><tspan x="2" y="18" dominant-baseline="ideographic">biri seçilir.</tspan></text></g></g></g><g id="g-root-tx_nicelnit_1d0ioue169g26a-stroke" data-item-order="0" transform="translate(518, 450)"></g><g id="g-root-tx_veritopl_1uualom169epzf-fill" data-item-order="0" transform="translate(345.7890625, 494)"><g id="tx_veritopl_1uualom169epzf-fill-merged" stroke="none" fill="#cd69fa" fill-opacity="1"><g><text style="font: 12px Merriweather, serif; white-space: pre;" transform="translate(50.2109375, 17)" font-size="12px" font-family="Merriweather, serif"><tspan x="-38.21" y="7.5" dominant-baseline="ideographic">Veri Toplama</tspan></text></g></g></g><g id="g-root-tx_veritopl_1uualom169epzf-stroke" data-item-order="0" transform="translate(345.7890625, 494)"></g><g id="g-root-tx_hipotezo_1d3n29y169g2kt-fill" data-item-order="0" transform="translate(560, 285)"><g id="tx_hipotezo_1d3n29y169g2kt-fill-merged" stroke="none" fill="#fb6963" fill-opacity="1"><g><text style="font: 12px Merriweather, serif; white-space: pre;" transform="translate(10, 24)" font-size="12px" font-family="Merriweather, serif"><tspan x="2" y="0.5" dominant-baseline="ideographic">Hipotez </tspan><tspan x="2" y="14.5" dominant-baseline="ideographic">Oluşturma</tspan></text></g></g></g><g id="g-root-tx_hipotezo_1d3n29y169g2kt-stroke" data-item-order="0" transform="translate(560, 285)"></g></g></g><path id="w142zk2e16007ib" d="M65.283 12.757a.35.35 0 0 0 .584.157l5.203-5.141-6.183 3.523.396 1.461zm-2.216-11.7a.35.35 0 0 0-.522.305v3.111l3.276-1.868-2.754-1.548zm3.728 2.105l-4.25 2.421v2.445l6.391-3.644-2.141-1.222zm4.708 3.303a.35.35 0 0 0 0-.609l-1.592-.9-7.365 4.199v1.782a.35.35 0 0 0 .523.305l8.435-4.777z M44.542 2.513c0-.433.355-.783.792-.783s.792.35.792.783-.355.783-.792.783-.792-.35-.792-.783zm59.171 0c0-.433.355-.783.792-.783s.792.35.792.783-.355.783-.792.783-.792-.35-.792-.783zm-85.951 7.636h-1.27v-.487c-.276.201-.864.609-1.881.609-1.202 0-2.274-.794-2.137-2.078.118-1.106 1.153-1.584 1.848-1.727l2.17-.345c0-.539-.29-.956-1.064-1.006s-1.21.305-1.571 1.017l-1.124-.605c1.218-2.631 5.029-1.764 5.029.414v4.207zm-1.27-2.86c.006.396-.062 1.112-.819 1.59-.587.37-1.841.299-1.903-.395-.049-.555.461-.791.906-.898l1.816-.297zm72.662 2.86h-1.27v-.487c-.276.201-.864.609-1.881.609-1.202 0-2.274-.794-2.137-2.078.118-1.106 1.153-1.584 1.848-1.727l2.17-.345c0-.539-.29-.956-1.064-1.006s-1.21.305-1.571 1.017l-1.124-.605c1.218-2.631 5.029-1.764 5.029.414v4.207zm-1.27-2.86c.006.396-.062 1.112-.82 1.59-.587.37-1.841.299-1.903-.395-.049-.555.461-.791.906-.898l1.816-.297zM99.096 10.149H97.85v-8.45h1.246v4.895l2.68-2.559h1.738l-2.633 2.535 2.715 3.578h-1.556l-2.077-2.707-.867.844v1.863zm6.053-6.114h-1.255v6.113h1.255V4.035zm-59.2 0h-1.255v6.113h1.255V4.035zm5.584 6.113V1.697h1.255v2.695c.361-.346 1-.485 1.47-.485 1.452 0 2.477 1.082 2.457 2.448v3.792h-1.27v-3.68c0-.408-.214-1.339-1.315-1.339-.968 0-1.342.756-1.342 1.339v3.681h-1.255zm-4.76-4.894V4.039h.621a.45.45 0 0 0 .45-.45v-.855h1.251v1.305h1.309v1.215h-1.309v3.109c0 .293.105.664.648.664.365 0 .531-.035.736-.07v1.137s-.361.113-.857.113c-1.398 0-1.777-1.051-1.777-1.788V5.254h-1.071zM36.528 4.039h-1.394l2.191 6.106h1.125l1.234-3.918 1.238 3.918h1.129l2.188-6.106h-1.383l-1.359 3.93-1.256-3.93h-1.124l-1.242 3.957-1.348-3.957zM26.212 7.141c-.02 1.566 1.187 3.129 3.223 3.129 1.566 0 2.383-.918 2.734-1.719L31.172 8c-.315.399-.801 1.094-1.738 1.094-1.145 0-1.825-.781-1.891-1.52h4.625c.074-.284.148-.995-.03-1.559-.336-1.064-1.221-2.102-2.839-2.102s-3.088 1.152-3.088 3.227zm1.363-.75h3.348c-.055-.43-.566-1.301-1.623-1.301a1.79 1.79 0 0 0-1.725 1.301zm-8.758.75c.038 1.758 1.277 3.133 3.145 3.133 1.074 0 1.723-.477 1.961-.672v.547h1.242V1.703h-1.258v2.888c-.414-.36-1.062-.68-1.93-.68-1.91 0-3.198 1.473-3.16 3.23zm1.309-.08c0 1.119.723 1.978 1.836 1.978a1.88 1.88 0 0 0 1.94-1.904c0-1.371-1.011-1.99-1.972-1.99s-1.805.798-1.805 1.916zm76.683-.028C96.771 5.275 95.532 3.9 93.664 3.9c-1.074 0-1.723.477-1.961.672v-.547h-1.242v8.22h1.258V9.583c.414.36 1.063.68 1.93.68 1.91 0 3.198-1.473 3.16-3.23zm-1.309.08c0-1.119-.723-1.978-1.836-1.978a1.88 1.88 0 0 0-1.94 1.904c0 1.371 1.011 1.99 1.972 1.99S95.5 8.231 95.5 7.113zM106.441 10.173V4.036h1.254v.382c.361-.346 1-.485 1.47-.485 1.452 0 2.477 1.082 2.457 2.448v3.792h-1.27V6.492c0-.408-.214-1.339-1.315-1.339-.969 0-1.342.756-1.342 1.339v3.681h-1.254zm-30.383-.021V1.824h1.084l4.215 5.777V1.824h1.32v8.328h-1.094l-4.207-5.796v5.796h-1.319zM5.24 10.149H4V2.377h1.014l2.664 3.597 2.654-3.592h1.03v7.766h-1.256V4.762L7.678 8.068 5.24 4.742v5.407z" transform="translate(656, 758)" fill="#acacac88" stroke="none"></path></svg>